<?xml version="1.0" encoding="utf-8"?>
<!-- Generator: Adobe Illustrator 27.5.0, SVG Export Plug-In . SVG Version: 6.00 Build 0)  -->
<svg version="1.1" id="Layer_1" xmlns="http://www.w3.org/2000/svg" xmlns:xlink="http://www.w3.org/1999/xlink" x="0px" y="0px"
	 viewBox="0 0 309.86 309.86" style="enable-background:new 0 0 309.86 309.86;" xml:space="preserve">
<style type="text/css">
	.st0{fill:#009245;}
</style>
<path class="st0" d="M215.09,78.36c-11.75,22.41-32.52,37.07-55.5,41.83c-9.18-21.63-8.92-47.05,2.83-69.46
	c11.75-22.41,32.52-37.07,55.52-41.79C227.08,30.56,226.84,55.95,215.09,78.36z M78.39,44.06c-3.07,19,2.12,39.18,15.88,54.7
	s33.16,23.11,52.41,22.37c3.03-19-2.16-39.18-15.91-54.7C117,50.9,97.61,43.34,78.39,44.06z M136.51,262.7h-16.19
	c-10.15,0-18.01-4.03-23.58-12.09c-5.58-8.06-8.36-18.96-8.36-32.69c0-13.73,2.78-24.53,8.36-32.39
	c5.57-7.86,13.43-11.79,23.58-11.79h16.19v-22.02c0-8.94-7.25-16.19-16.19-16.19h0c-11.15,0-21.45,1.99-30.9,5.97
	c-9.46,3.98-17.61,9.55-24.48,16.72c-6.87,7.16-12.24,15.82-16.12,25.97c-3.88,10.15-5.82,21.4-5.82,33.74
	c0,12.34,1.89,23.64,5.67,33.88c3.78,10.25,9.06,19.01,15.82,26.27c6.76,7.27,14.88,12.89,24.33,16.87
	c9.45,3.98,19.95,5.97,31.5,5.97h0c8.94,0,16.19-7.25,16.19-16.19V262.7z M261.04,184.18c-3.88-10.15-9.25-18.81-16.12-25.97
	c-6.87-7.16-15.02-12.73-24.48-16.72c-9.45-3.98-19.75-5.97-30.9-5.97h0c-8.94,0-16.19,7.25-16.19,16.19v22.02h16.19
	c10.15,0,18.01,3.93,23.58,11.79c5.58,7.87,8.36,18.66,8.36,32.39c0,13.73-2.78,24.63-8.36,32.69
	c-5.57,8.06-13.43,12.09-23.58,12.09h-16.19v22.02c0,8.94,7.25,16.19,16.19,16.19h0c11.54,0,22.04-1.99,31.5-5.97
	c9.46-3.98,17.57-9.6,24.33-16.87c6.77-7.26,12.04-16.02,15.82-26.27c3.78-10.25,5.67-21.54,5.67-33.88
	C266.86,205.58,264.92,194.33,261.04,184.18z M182.84,201.48h-52.75c-9.88,0-17.89,8.01-17.89,17.89s8.01,17.89,17.89,17.89h52.75
	c9.88,0,17.89-8.01,17.89-17.89S192.72,201.48,182.84,201.48z"/>
</svg>
