<?xml version="1.0" encoding="utf-8"?>
<!-- Generator: Adobe Illustrator 27.5.0, SVG Export Plug-In . SVG Version: 6.00 Build 0)  -->
<svg version="1.1" id="Layer_1" xmlns="http://www.w3.org/2000/svg" xmlns:xlink="http://www.w3.org/1999/xlink" x="0px" y="0px"
	 viewBox="0 0 975.7 219.51" style="enable-background:new 0 0 975.7 219.51;" xml:space="preserve">
<style type="text/css">
	.st0{fill:#2E2E2E;}
	.st1{fill:#009245;}
</style>
<g>
	<path class="st0" d="M32.69,143.35c3.22-3.49,6.54-7.12,9.97-10.91c3.43-3.78,6.76-7.52,9.97-11.23c3.22-3.71,6.25-7.23,9.1-10.58
		c2.85-3.34,5.3-6.25,7.34-8.72h38.87c-7.76,8.91-15.33,17.41-22.71,25.51c-7.39,8.1-15.47,16.45-24.24,25.07
		c4.39,3.95,8.92,8.68,13.6,14.17c4.68,5.5,9.21,11.17,13.6,17.04c4.39,5.86,8.41,11.72,12.07,17.58
		c3.65,5.86,6.73,11.21,9.22,16.04H71.89c-2.34-3.81-5-8.03-7.99-12.65c-2.99-4.62-6.17-9.24-9.53-13.85
		c-3.36-4.62-6.9-9.05-10.62-13.3c-3.72-4.25-7.41-7.84-11.06-10.78v50.58H0V52.32l32.69-5.27V143.35z"/>
	<path class="st0" d="M154.02,68.56c0,6-1.94,10.72-5.81,14.15c-3.88,3.44-8.45,5.16-13.71,5.16c-5.27,0-9.84-1.72-13.71-5.16
		c-3.88-3.44-5.81-8.15-5.81-14.15c0-6,1.94-10.71,5.81-14.15c3.87-3.44,8.45-5.16,13.71-5.16c5.27,0,9.84,1.72,13.71,5.16
		C152.08,57.84,154.02,62.56,154.02,68.56z M150.95,217.31h-32.69V101.91h32.69V217.31z"/>
	<path class="st0" d="M218.97,219.51c-9.51-0.15-17.22-1.17-23.15-3.07c-5.92-1.9-10.61-4.57-14.04-8.01
		c-3.44-3.44-5.78-7.6-7.02-12.51c-1.25-4.9-1.86-10.42-1.86-16.57V52.32l32.69-5.27v125.72c0,2.93,0.22,5.56,0.66,7.9
		c0.44,2.34,1.28,4.32,2.52,5.92c1.24,1.61,3.03,2.93,5.38,3.95c2.34,1.03,5.48,1.68,9.43,1.98L218.97,219.51z"/>
	<path class="st0" d="M269.21,68.56c0,6-1.94,10.72-5.81,14.15c-3.88,3.44-8.45,5.16-13.71,5.16c-5.27,0-9.84-1.72-13.71-5.16
		c-3.88-3.44-5.81-8.15-5.81-14.15c0-6,1.94-10.71,5.81-14.15c3.87-3.44,8.45-5.16,13.71-5.16c5.27,0,9.84,1.72,13.71,5.16
		C267.27,57.84,269.21,62.56,269.21,68.56z M266.14,217.31h-32.69V101.91h32.69V217.31z"/>
	<path class="st0" d="M351.49,156.1c0-10.53-1.35-17.99-4.06-22.38c-2.71-4.39-7.35-6.58-13.93-6.58c-2.05,0-4.17,0.11-6.36,0.33
		c-2.19,0.22-4.32,0.48-6.36,0.77v89.08h-32.69V105.86c2.78-0.73,6.03-1.5,9.76-2.3c3.73-0.8,7.68-1.54,11.85-2.19
		c4.17-0.66,8.45-1.17,12.84-1.54c4.39-0.36,8.7-0.55,12.94-0.55c8.34,0,15.1,1.06,20.29,3.18c5.19,2.12,9.47,4.64,12.84,7.57
		c4.68-3.36,10.05-6,16.13-7.9c6.07-1.9,11.66-2.85,16.78-2.85c9.21,0,16.79,1.28,22.71,3.84c5.92,2.56,10.64,6.18,14.15,10.86
		c3.51,4.68,5.92,10.24,7.24,16.68c1.32,6.44,1.97,13.6,1.97,21.5v65.16H414.9V156.1c0-10.53-1.35-17.99-4.06-22.38
		c-2.71-4.39-7.35-6.58-13.93-6.58c-1.76,0-4.21,0.44-7.35,1.32c-3.15,0.88-5.74,1.97-7.79,3.29c1.02,3.37,1.68,6.91,1.97,10.64
		c0.29,3.73,0.44,7.72,0.44,11.96v62.97h-32.69V156.1z"/>
	<path class="st0" d="M689.4,219.51c-9.51-0.15-17.22-1.17-23.15-3.07c-5.92-1.9-10.61-4.57-14.04-8.01
		c-3.44-3.44-5.78-7.6-7.02-12.51c-1.24-4.9-1.86-10.42-1.86-16.57V52.32l32.69-5.27v125.72c0,2.93,0.22,5.56,0.66,7.9
		c0.44,2.34,1.28,4.32,2.52,5.92c1.24,1.61,3.03,2.93,5.38,3.95c2.34,1.03,5.48,1.68,9.43,1.98L689.4,219.51z"/>
	<path class="st0" d="M739.64,68.56c0,6-1.94,10.72-5.81,14.15c-3.88,3.44-8.45,5.16-13.71,5.16s-9.84-1.72-13.71-5.16
		c-3.88-3.44-5.81-8.15-5.81-14.15c0-6,1.94-10.71,5.81-14.15c3.87-3.44,8.45-5.16,13.71-5.16s9.83,1.72,13.71,5.16
		C737.7,57.84,739.64,62.56,739.64,68.56z M736.57,217.31h-32.69V101.91h32.69V217.31z"/>
	<path class="st0" d="M753.12,105.86c5.56-1.61,12.73-3.11,21.5-4.5c8.78-1.39,17.99-2.09,27.64-2.09c9.8,0,17.95,1.28,24.46,3.84
		c6.51,2.56,11.66,6.18,15.47,10.86c3.8,4.68,6.51,10.24,8.12,16.68c1.61,6.44,2.41,13.6,2.41,21.5v65.16h-32.69V156.1
		c0-10.53-1.39-17.99-4.17-22.38c-2.78-4.39-7.98-6.58-15.58-6.58c-2.34,0-4.83,0.11-7.46,0.33c-2.63,0.22-4.97,0.48-7.02,0.77
		v89.08h-32.69V105.86z"/>
	<path class="st0" d="M898.9,143.35c3.22-3.49,6.54-7.12,9.97-10.91c3.43-3.78,6.76-7.52,9.97-11.23c3.22-3.71,6.25-7.23,9.09-10.58
		c2.85-3.34,5.3-6.25,7.34-8.72h38.87c-7.75,8.91-15.32,17.41-22.71,25.51c-7.39,8.1-15.47,16.45-24.25,25.07
		c4.39,3.95,8.92,8.68,13.6,14.17c4.68,5.5,9.21,11.17,13.6,17.04c4.39,5.86,8.41,11.72,12.07,17.58
		c3.65,5.86,6.73,11.21,9.21,16.04h-37.59c-2.34-3.81-5-8.03-7.99-12.65c-2.99-4.62-6.17-9.24-9.53-13.85
		c-3.36-4.62-6.9-9.05-10.62-13.3c-3.72-4.25-7.41-7.84-11.06-10.78v50.58h-32.69V52.32l32.69-5.27V143.35z"/>
	<g>
		<g>
			<g>
				<path class="st1" d="M590.1,52.19c-8.84,16.85-24.45,27.87-41.73,31.45c-6.9-16.26-6.71-35.37,2.13-52.22
					C559.34,14.57,574.95,3.55,592.24,0C599.12,16.25,598.94,35.34,590.1,52.19z"/>
				<path class="st1" d="M526.7,43.22c10.34,11.67,14.25,26.84,11.97,41.13c-14.47,0.56-29.06-5.15-39.4-16.82
					s-14.25-26.84-11.94-41.12C501.78,25.86,516.36,31.55,526.7,43.22z"/>
			</g>
			<g>
				<path class="st1" d="M531.03,190.78h-12.17c-7.63,0-13.54-3.03-17.73-9.09c-4.19-6.06-6.28-14.25-6.28-24.58
					c0-10.33,2.09-18.44,6.28-24.35c4.19-5.91,10.1-8.87,17.73-8.87h12.17v-16.56c0-6.72-5.45-12.17-12.17-12.17l0,0
					c-8.38,0-16.12,1.5-23.23,4.49c-7.11,2.99-13.24,7.18-18.4,12.57c-5.16,5.39-9.2,11.9-12.12,19.53
					c-2.92,7.63-4.38,16.09-4.38,25.36c0,9.28,1.42,17.77,4.26,25.47c2.84,7.71,6.81,14.29,11.9,19.75
					c5.09,5.46,11.18,9.69,18.29,12.68c7.11,2.99,15,4.49,23.68,4.49l0,0c6.72,0,12.17-5.45,12.17-12.17V190.78z"/>
				<path class="st1" d="M624.64,131.75c-2.92-7.63-6.96-14.14-12.12-19.53c-5.16-5.39-11.29-9.57-18.4-12.57
					c-7.11-2.99-14.85-4.49-23.23-4.49l0,0c-6.72,0-12.17,5.45-12.17,12.17v16.56h12.17c7.63,0,13.54,2.96,17.73,8.87
					c4.19,5.91,6.28,14.03,6.28,24.35c0,10.32-2.09,18.52-6.28,24.58c-4.19,6.06-10.1,9.09-17.73,9.09h-12.17v16.56
					c0,6.72,5.45,12.17,12.17,12.17l0,0c8.68,0,16.57-1.5,23.68-4.49c7.11-2.99,13.21-7.22,18.29-12.68
					c5.09-5.46,9.05-12.04,11.9-19.75c2.84-7.7,4.26-16.2,4.26-25.47C629.02,147.83,627.56,139.38,624.64,131.75z"/>
			</g>
		</g>
		<path class="st1" d="M565.86,144.75h-39.66c-7.43,0-13.45,6.02-13.45,13.45s6.02,13.45,13.45,13.45h39.66
			c7.43,0,13.45-6.02,13.45-13.45S573.28,144.75,565.86,144.75z"/>
	</g>
</g>
</svg>
